<svg width="549" height="664" viewBox="0 0 549 664" fill="none" xmlns="http://www.w3.org/2000/svg">
<g opacity="0.3">
<path d="M563.249 442.751C518.16 418.603 366.171 340.89 327.021 317.132C285.917 292.203 292.794 218.82 292.794 218.82C226.411 296.143 255.089 361.294 298.811 384.389C306.977 388.68 317.174 395.546 325.34 399.877C341.633 408.576 376.056 427.537 413.252 447.901L197.38 538.371L0 629.249C10.7447 648.365 111.774 622.989 125.215 640.232L198.044 609.451L448.612 503.182L485.183 487.694L485.887 487.382L556.02 526.94L178.938 683.926L168.936 688.919C186.323 705.734 205.117 721.105 225.043 734.915H225.082L282.908 709.557L545.276 602.039L550.277 600.4C550.277 600.4 550.824 600.244 551.801 599.932L553.95 599.191C564.382 595.446 594.233 582.377 606.892 551.83L607.361 550.66C607.869 549.411 608.338 548.124 608.806 546.836C609.08 545.978 609.353 545.12 609.627 544.301C610.057 542.974 610.487 541.687 610.838 540.321C618.184 513.247 611.542 487.616 593.959 466.861C585.481 456.874 574.814 448.954 563.249 442.751Z" fill="#E5E9EE"/>
<path d="M539.529 290.057L552.267 284.907L556.447 283.269L558.987 282.255C613.609 260.798 765.56 201.226 810.336 184.88L878.985 158.312C867.498 136.387 854.253 115.477 839.405 95.8534L502.333 235.479L467.051 250.069L466.895 250.147C438.333 234.386 419.462 223.931 419.462 223.931C412.038 220.03 406.294 215.777 401.918 211.291L790.527 48.1413C790.527 48.1413 792.676 47.283 795.293 45.8005C778.258 29.0642 759.816 13.8104 740.241 0L682.024 24.1487C679.445 25.4361 677.687 26.1383 677.687 26.1383L411.921 135.022L399.027 140.328L397.386 140.991C397.386 140.991 381.64 148.286 367.027 161.823C341.943 182.851 336.668 206.844 339.208 227.715C342.607 255.648 360.62 279.641 385.469 292.866C438.216 320.955 563.676 387.666 618.376 416.067C672.686 444.468 664.598 521.4 664.598 521.4C664.598 521.4 665.184 520.503 666.083 518.943L666.552 518.123C677.922 498.617 732.349 395.703 646.352 348.81C612.711 330.474 574.538 309.524 539.217 290.057C539.217 290.057 539.256 290.018 539.373 289.979L539.529 290.057Z" fill="#E5E9EE"/>
</g>
</svg>
