<?xml version="1.0" encoding="utf-8"?>
<!-- Generator: Adobe Illustrator 26.4.1, SVG Export Plug-In . SVG Version: 6.00 Build 0)  -->
<svg version="1.1" id="Layer_1" xmlns="http://www.w3.org/2000/svg" xmlns:xlink="http://www.w3.org/1999/xlink" x="0px" y="0px"
	 viewBox="0 0 941.9 344.8" style="enable-background:new 0 0 941.9 344.8;" xml:space="preserve">
<style type="text/css">
	.st0{fill:#FFFFFF;}
	.st1{fill:url(#SVGID_1_);}
	.st2{fill:url(#SVGID_00000123401440953643104140000007153719641681540256_);}
	.st3{fill:url(#SVGID_00000178924534595090900380000014326142355044540289_);}
	.st4{opacity:0.4;fill:#070707;enable-background:new    ;}
	.st5{fill:#181B30;}
</style>
<g>
	<circle class="st0" cx="172.4" cy="172.4" r="171.2"/>
	<g>
		<g>
			<g>
				
					<linearGradient id="SVGID_1_" gradientUnits="userSpaceOnUse" x1="142.13" y1="256.245" x2="310.02" y2="256.245" gradientTransform="matrix(1 0 0 -1 0 344.86)">
					<stop  offset="0" style="stop-color:#469BF5"/>
					<stop  offset="9.110000e-02" style="stop-color:#3B81F4"/>
					<stop  offset="0.2081" style="stop-color:#3068F3"/>
					<stop  offset="0.3386" style="stop-color:#2754F2"/>
					<stop  offset="0.4881" style="stop-color:#2147F1"/>
					<stop  offset="0.673" style="stop-color:#1D3EF1"/>
					<stop  offset="1" style="stop-color:#1C3CF1"/>
				</linearGradient>
				<path class="st1" d="M148.9,117.8c0,0,7.2,4,18.2,10.1l143-59.3c-5.2-6.8-10.8-13.2-16.9-19.2c-1,0.6-1.9,0.9-1.9,0.9
					l-149.1,62.7C143.8,114.7,146,116.3,148.9,117.8z"/>
				
					<linearGradient id="SVGID_00000166636860193402233860000002178731839117725103_" gradientUnits="userSpaceOnUse" x1="35.94" y1="87.0799" x2="201.26" y2="87.0799" gradientTransform="matrix(1 0 0 -1 0 344.86)">
					<stop  offset="7.540000e-02" style="stop-color:#469BF5"/>
					<stop  offset="0.2387" style="stop-color:#4292F5"/>
					<stop  offset="0.5078" style="stop-color:#3779F4"/>
					<stop  offset="0.8475" style="stop-color:#2550F2"/>
					<stop  offset="1" style="stop-color:#1C3CF1"/>
				</linearGradient>
				<path style="fill:url(#SVGID_00000166636860193402233860000002178731839117725103_);" d="M56.6,294.6l144.7-60.3l-26.9-15.2
					L63.9,266l-28,11.8c5.1,6.6,10.8,12.9,16.8,18.7L56.6,294.6z"/>
				
					<linearGradient id="SVGID_00000037667210485102230740000016370717508007194289_" gradientUnits="userSpaceOnUse" x1="-2.893266e-02" y1="172.4386" x2="344.8315" y2="172.4386" gradientTransform="matrix(1 0 0 -1 0 344.86)">
					<stop  offset="7.540000e-02" style="stop-color:#469BF5"/>
					<stop  offset="0.7046" style="stop-color:#2857F2"/>
					<stop  offset="1" style="stop-color:#1C3CF1"/>
				</linearGradient>
				<path style="fill:url(#SVGID_00000037667210485102230740000016370717508007194289_);" d="M325.2,92.6l-26.3,10.2
					c-21.1,7.7-104.1,40.4-104.1,40.4c13.6,7.5,28.2,15.5,41.1,22.6c33,18,12.1,57.6,7.8,65.1c-0.1,0.1-0.1,0.2-0.2,0.3
					c-0.4,0.6-0.6,1-0.6,1s3.1-29.6-17.7-40.5c-21-10.9-69.1-36.6-89.4-47.4c-9.5-5.1-16.4-14.3-17.8-25c-1-8,1-17.2,10.7-25.3
					c5.2-4.8,10.7-7.6,11.6-7.9c0.1,0,0.1-0.1,0.2-0.1l107.5-44.1c0,0,0.7-0.3,1.7-0.8l22.4-9.3C243.8,11.8,209.5,0,172.4,0
					C77,0-1.8,80.3,0,175.6c0.5,29.5,8.5,57.1,22,81.1l41.6-18.1l82.8-34.8c-14.3-7.8-27.5-15.1-33.7-18.5c-3.1-1.7-7-4.3-10.2-6
					c-16.8-8.9-27.8-33.9-2.3-63.6c0,0-2.6,28.2,13.1,37.8c15.1,9.2,73.6,39.1,90.8,48.4c3.9,2.1,7.5,4.7,10.5,7.9
					c7.6,8.2,10.6,18.5,7.6,29.5c-0.1,0.5-0.3,1-0.5,1.5c-0.1,0.3-0.2,0.6-0.3,1c-0.2,0.5-0.4,1-0.5,1.5c-0.1,0.1-0.1,0.3-0.2,0.5
					c-5.9,14.3-21.7,18.7-21.7,18.7l-1.9,0.6L96.5,304.4l-22.2,9.8c28.1,19.5,62.2,30.9,99.1,30.7c95.5-0.5,173.8-81.3,171.4-176.7
					C344.1,140.9,337.1,115.3,325.2,92.6z"/>
			</g>
			<polygon class="st4" points="146.6,203.8 174.4,218.9 160.5,224.9 131.3,210.2 			"/>
			<path class="st4" d="M199,262.4c0,0,23.1-16.4,2.2-28.2l-13.2,5.5C188.1,239.6,210,245.5,199,262.4z"/>
			<polygon class="st4" points="194.9,143.1 167,127.9 181.3,122 210.7,137 			"/>
			<path class="st4" d="M144.4,84.4c0,0-23.4,16.6-2.2,28.5l13.3-5.5C155.4,107.4,133.3,101.4,144.4,84.4z"/>
		</g>
		<g>
			<path class="st5" d="M472.9,135.7h-13.3v40.2h-28V53.5h48.9c23.2,0,42,18.7,42,42c0,15-9.1,28.7-22.5,35.5l26,44.9H496
				L472.9,135.7z M459.6,111.2h21c7.7,0,14-6.8,14-15.7c0-8.9-6.3-15.7-14-15.7h-21V111.2z"/>
			<path class="st5" d="M623.6,88.5v87.4h-26.2v-8.2c-5.8,6.6-14.3,10.7-26,10.7c-22.9,0-41.8-20.1-41.8-46.1
				c0-26.1,18.9-46.2,41.8-46.2c11.7,0,20.3,4,26,10.7v-8.2L623.6,88.5L623.6,88.5z M597.4,132.2c0-13.1-8.7-21.3-20.8-21.3
				c-12.1,0-20.8,8.2-20.8,21.3c0,13.1,8.7,21.3,20.8,21.3C588.6,153.5,597.4,145.3,597.4,132.2z"/>
			<path class="st5" d="M726.7,122.2v53.7h-26.2v-49.8c0-10.8-6.8-15.9-15.2-15.9c-9.6,0-16.3,5.6-16.3,18v47.7h-26.2V88.5H669v8.2
				c4.7-6.5,13.5-10.7,25-10.7C711.7,86.1,726.7,98.6,726.7,122.2z"/>
			<path class="st5" d="M834.4,88.5v83c0,29.4-22.9,41.8-46.2,41.8c-18.2,0-33.4-6.8-41.4-21.1l22.4-12.9c3.3,6.1,8.4,11,19.9,11
				c12.2,0,19.8-6.3,19.8-18.7v-8c-5.8,7.2-14.2,11.4-25.5,11.4c-24.8,0-43-20.3-43-44.4s18.2-44.4,43-44.4
				c11.4,0,19.8,4.2,25.5,11.4v-8.9L834.4,88.5L834.4,88.5z M808.9,130.5c0-12.1-8.7-20.3-21.2-20.3c-12.4,0-21.2,8.2-21.2,20.3
				s8.7,20.3,21.2,20.3C800.2,150.8,808.9,142.5,808.9,130.5z"/>
			<path class="st5" d="M849.3,132.2c0-26,20.6-46.2,46.3-46.2s46.3,20.1,46.3,46.2s-20.6,46.2-46.3,46.2S849.3,158.3,849.3,132.2z
				 M915.7,132.2c0-12.4-8.7-20.6-20.1-20.6c-11.4,0-20.1,8.2-20.1,20.6s8.7,20.6,20.1,20.6C907,152.8,915.7,144.6,915.7,132.2z"/>
		</g>
		<g>
			<path class="st5" d="M436.6,289.4h38v5.4h-43.8v-76h43.2v5.4h-37.5v29.5h34.8v5.4h-34.8L436.6,289.4L436.6,289.4z"/>
			<path class="st5" d="M534.4,294.9h-6.6l-18.3-23.7l-18.3,23.7h-6.6l21.7-27.9l-20.4-26.4h6.6l17,22l17.2-22h6.5l-20.3,26.3
				L534.4,294.9z"/>
			<path class="st5" d="M569.5,296.1c-8.2,0-15-2.7-20.4-8.1s-8.1-12.2-8.1-20.2s2.7-14.8,8.1-20.2c5.4-5.4,12.2-8.1,20.4-8.1
				c5.3,0,10.1,1.2,14.3,3.8c4.3,2.5,7.4,5.9,9.3,10.1l-4.5,2.6c-1.6-3.5-4.1-6.2-7.5-8.3c-3.4-2-7.3-3-11.7-3
				c-6.5,0-12,2.2-16.4,6.7c-4.4,4.5-6.6,9.9-6.6,16.5c0,6.5,2.2,12,6.6,16.5s9.9,6.7,16.4,6.7c4.3,0,8.2-1,11.7-3s6.1-4.8,7.9-8.2
				l4.6,2.7c-2.2,4.2-5.4,7.5-9.7,10C579.5,294.8,574.7,296.1,569.5,296.1z"/>
			<path class="st5" d="M633,239.4c6.4,0,11.6,2,15.4,5.9c3.8,4,5.7,9.2,5.7,15.8v33.8h-5.5v-33.8c0-5.1-1.4-9.1-4.2-12
				c-2.8-3-6.7-4.5-11.8-4.5c-5.6,0-10.1,1.9-13.7,5.5c-3.5,3.7-5.3,9-5.3,16.1v28.7h-5.4v-76h5.4v32
				C617.5,243.2,623.9,239.4,633,239.4z"/>
			<path class="st5" d="M719.8,240.6h5.5v54.3h-5.5v-12.3c-2.3,4.2-5.5,7.5-9.6,9.9s-8.7,3.6-13.8,3.6c-7.8,0-14.4-2.7-19.9-8.2
				s-8.2-12.2-8.2-20.1s2.8-14.7,8.2-20.1c5.5-5.5,12.1-8.2,19.9-8.2c5.1,0,9.7,1.2,13.8,3.6c4,2.4,7.2,5.7,9.6,9.9V240.6z
				 M680.5,284.1c4.5,4.5,9.9,6.7,16.3,6.7s11.9-2.2,16.3-6.7c4.4-4.5,6.6-10,6.6-16.4c0-6.4-2.2-11.9-6.6-16.4
				c-4.4-4.5-9.8-6.7-16.3-6.7s-11.9,2.2-16.3,6.7c-4.5,4.5-6.7,10-6.7,16.4C673.8,274.2,676,279.6,680.5,284.1z"/>
			<path class="st5" d="M769.5,239.4c6.4,0,11.6,2,15.4,5.9c3.8,4,5.7,9.2,5.7,15.8v33.8H785v-33.8c0-5.1-1.4-9.1-4.2-12
				c-2.8-3-6.7-4.5-11.8-4.5c-5.6,0-10.1,1.9-13.7,5.5c-3.5,3.7-5.3,9-5.3,16.1v28.7h-5.4v-54.3h5.4v10.3
				C754,243.2,760.4,239.4,769.5,239.4z"/>
			<path class="st5" d="M856.7,240.6h5.4v51.7c0,7.9-2.6,14.1-7.7,18.7s-11.6,6.8-19.3,6.8c-6.2,0-11.5-1.2-16-3.5
				c-4.4-2.3-7.6-5.5-9.7-9.6l4.8-2.7c3.5,7,10.4,10.5,20.8,10.5c6.7,0,12-1.8,15.9-5.5c3.8-3.7,5.8-8.6,5.8-14.8v-10
				c-2.2,4.3-5.4,7.6-9.5,10.1s-8.7,3.7-13.8,3.7c-7.8,0-14.5-2.7-19.9-8.2s-8.2-12.2-8.2-20.1s2.7-14.7,8.2-20.1
				c5.5-5.5,12.1-8.2,19.9-8.2c5.1,0,9.8,1.2,13.8,3.7c4.1,2.5,7.3,5.8,9.5,10.1L856.7,240.6L856.7,240.6z M817.3,284.1
				c4.5,4.5,9.9,6.7,16.3,6.7s11.9-2.2,16.3-6.7c4.5-4.5,6.7-10,6.7-16.4c0-6.4-2.2-11.9-6.7-16.4c-4.5-4.5-9.9-6.7-16.3-6.7
				c-6.5,0-11.9,2.2-16.3,6.7c-4.5,4.5-6.7,10-6.7,16.4C810.7,274.2,812.9,279.6,817.3,284.1z"/>
			<path class="st5" d="M905.9,239.4c8,0,14.4,2.8,19.4,8.5c5,5.6,7.4,12.4,7.4,20.1c0,0.3,0,0.7,0,1.3c0,0.6-0.1,1-0.1,1.3h-49.2
				c0.7,6.1,3.1,11,7.3,14.7c4.2,3.7,9.5,5.6,15.7,5.6c4.3,0,8.2-0.9,11.4-2.7c3.3-1.8,5.7-4.2,7.4-7.2l4.8,2.8
				c-2.2,3.8-5.4,6.8-9.6,9s-8.8,3.3-14.1,3.3c-8.3,0-15.2-2.7-20.5-8c-5.4-5.3-8-12.1-8-20.4c0-8.1,2.6-14.9,7.9-20.2
				C890.9,242.1,897.6,239.4,905.9,239.4z M905.9,244.6c-6.2,0-11.3,1.9-15.4,5.8c-4.1,3.8-6.5,8.8-7.1,14.9h43.7
				c-0.6-6.4-2.9-11.5-6.9-15.1C916.2,246.4,911.4,244.6,905.9,244.6z"/>
		</g>
	</g>
</g>
</svg>
